<mxfile host="65bd71144e">
    <diagram id="tb1FFTdrItkGO5bqAeNe" name="Page-1">
        <mxGraphModel dx="1074" dy="798" grid="1" gridSize="10" guides="1" tooltips="1" connect="1" arrows="1" fold="1" page="1" pageScale="1" pageWidth="850" pageHeight="1100" math="0" shadow="0">
            <root>
                <mxCell id="0"/>
                <mxCell id="1" parent="0"/>
                <mxCell id="11" value="Container (Composed)" style="whiteSpace=wrap;html=1;align=left;verticalAlign=top;" vertex="1" parent="1">
                    <mxGeometry x="80" y="560" width="670" height="460" as="geometry"/>
                </mxCell>
                <mxCell id="12" value="" style="group" vertex="1" connectable="0" parent="1">
                    <mxGeometry x="110" y="600" width="600" height="150" as="geometry"/>
                </mxCell>
                <mxCell id="13" value="Container (row container)" style="whiteSpace=wrap;html=1;align=left;verticalAlign=top;" vertex="1" parent="12">
                    <mxGeometry width="600" height="150" as="geometry"/>
                </mxCell>
                <mxCell id="14" value="" style="whiteSpace=wrap;html=1;" vertex="1" parent="12">
                    <mxGeometry x="27.90967741935484" y="45" width="204.3483870967742" height="60" as="geometry"/>
                </mxCell>
                <mxCell id="15" value="" style="whiteSpace=wrap;html=1;" vertex="1" parent="12">
                    <mxGeometry x="340.0025806451613" y="45" width="225.50322580645164" height="60" as="geometry"/>
                </mxCell>
                <mxCell id="7" value="" style="group" vertex="1" connectable="0" parent="1">
                    <mxGeometry x="110" y="770" width="180" height="230" as="geometry"/>
                </mxCell>
                <mxCell id="8" value="Container (col container)" style="whiteSpace=wrap;html=1;align=left;verticalAlign=top;" vertex="1" parent="7">
                    <mxGeometry width="180" height="230" as="geometry"/>
                </mxCell>
                <mxCell id="9" value="" style="whiteSpace=wrap;html=1;" vertex="1" parent="7">
                    <mxGeometry x="38.57285714285722" y="40" width="102.85714285714285" height="72" as="geometry"/>
                </mxCell>
                <mxCell id="10" value="" style="whiteSpace=wrap;html=1;" vertex="1" parent="7">
                    <mxGeometry x="38.57285714285722" y="150" width="102.85714285714285" height="60" as="geometry"/>
                </mxCell>
                <mxCell id="18" value="Grid" style="whiteSpace=wrap;html=1;align=left;verticalAlign=top;" vertex="1" parent="1">
                    <mxGeometry x="330" y="770" width="380" height="230" as="geometry"/>
                </mxCell>
                <mxCell id="19" value="" style="whiteSpace=wrap;html=1;" vertex="1" parent="1">
                    <mxGeometry x="360" y="820" width="80" height="60" as="geometry"/>
                </mxCell>
                <mxCell id="21" value="" style="whiteSpace=wrap;html=1;" vertex="1" parent="1">
                    <mxGeometry x="480" y="820" width="80" height="60" as="geometry"/>
                </mxCell>
                <mxCell id="22" value="" style="whiteSpace=wrap;html=1;" vertex="1" parent="1">
                    <mxGeometry x="600" y="820" width="80" height="60" as="geometry"/>
                </mxCell>
                <mxCell id="23" value="" style="whiteSpace=wrap;html=1;" vertex="1" parent="1">
                    <mxGeometry x="360" y="920" width="80" height="60" as="geometry"/>
                </mxCell>
                <mxCell id="24" value="" style="whiteSpace=wrap;html=1;" vertex="1" parent="1">
                    <mxGeometry x="480" y="920" width="80" height="60" as="geometry"/>
                </mxCell>
                <mxCell id="25" value="" style="whiteSpace=wrap;html=1;" vertex="1" parent="1">
                    <mxGeometry x="600" y="920" width="80" height="60" as="geometry"/>
                </mxCell>
            </root>
        </mxGraphModel>
    </diagram>
</mxfile>